<?xml version="1.0" encoding="iso-8859-1" standalone="no"?> 
<?xml-stylesheet href="twin1.css" type="text/css"?> 
<svg xmlns="http://www.w3.org/2000/svg" xmlns:xlink="http://www.w3.org/1999/xlink" width="291.5021pt" height="99.25749pt" viewBox="-31.58643 -0.2 291.5021 99.25749 "> 
<g transform="translate(0, 99.0575 ) scale(1,-1) translate(0,0.2 )"> 
         </p><g stroke="#000" fill="#000">
 <g stroke-width="0.4">
 <path d=" M 0.0 0.0 L 0.0 85.35823  " fill="none"/>
 <g transform="translate(-3.54167,88.8912)">
 <g fill="#000">
 <text style="stroke:none" transform="scale(1,-1) translate(3.54167,0)" text-anchor="middle"  font-size="10"> 
<g fill="#000">
 <g stroke="none"> B</g> </g>
 </text> 
</g>
 </g>
 <path d=" M 0.0 0.0 L 56.90549 85.35823  " fill="none"/>
 <g transform="translate(37.89906,56.8486)">
 <g fill="#000">
 <text style="stroke:none" transform="scale(1,-1) translate(0.0,0)" text-anchor="middle"  font-size="10"> 
<g fill="#000">
 <g stroke="none"> </g> </g>
 </text> 
</g>
 </g>
 <g transform="translate(53.15549,88.8912)">
 <g fill="#000">
 <text style="stroke:none" transform="scale(1,-1) translate(3.75,0)" text-anchor="middle"  font-size="10"> 
<g fill="#000">
 <g stroke="none"> A</g> </g>
 </text> 
</g>
 </g>
 <path d=" M -14.22636 28.45274 L 14.22636 28.45274  " fill="none"/>
 <g transform="translate(-28.25345,26.12733)">
 <g fill="#000">
 <text style="stroke:none" transform="scale(1,-1) translate(5.24706,0)" text-anchor="middle"  font-size="10"> 
<g fill="#000">
 <g stroke="none"> <tspan font-family="cmmi" font-size="10">t</tspan><tspan baseline-shift="sub"><tspan font-family="cmmi" font-size="7">B</tspan></tspan></g> </g>
 </text> 
</g>
 </g>
 <path d=" M 34.36609 56.8486 L 23.6727 56.8486 L 52.12543 56.8486  " fill="none"/>
 <g transform="translate(55.6584,55.44582)">
 <g fill="#000">
 <text style="stroke:none" transform="scale(1,-1) translate(5.78525,0)" text-anchor="middle"  font-size="10"> 
<g fill="#000">
 <g stroke="none"> <tspan font-family="cmmi" font-size="10">s</tspan><tspan baseline-shift="sub"><tspan font-family="cmmi" font-size="7">B</tspan></tspan></g> </g>
 </text> 
</g>
 </g>
 <path d=" M 227.62195 0.0 L 227.62195 85.35823  " fill="none"/>
 <g transform="translate(223.87195,88.8912)">
 <g fill="#000">
 <text style="stroke:none" transform="scale(1,-1) translate(3.75,0)" text-anchor="middle"  font-size="10"> 
<g fill="#000">
 <g stroke="none"> A </g> </g>
 </text> 
</g>
 </g>
 <path d=" M 227.62195 0.0 L 170.71646 85.35823  " fill="none"/>
 <g transform="translate(189.72289,56.8486)">
 <g fill="#000">
 <text style="stroke:none" transform="scale(1,-1) translate(0.0,0)" text-anchor="middle"  font-size="10"> 
<g fill="#000">
 <g stroke="none"> </g> </g>
 </text> 
</g>
 </g>
 <g transform="translate(167.17479,88.8912)">
 <g fill="#000">
 <text style="stroke:none" transform="scale(1,-1) translate(3.54167,0)" text-anchor="middle"  font-size="10"> 
<g fill="#000">
 <g stroke="none"> B </g> </g>
 </text> 
</g>
 </g>
 <path d=" M 213.39557 28.45274 L 241.84831 28.45274  " fill="none"/>
 <g transform="translate(245.38129,27.04996)">
 <g fill="#000">
 <text style="stroke:none" transform="scale(1,-1) translate(5.60071,0)" text-anchor="middle"  font-size="10"> 
<g fill="#000">
 <g stroke="none"> <tspan font-family="cmmi" font-size="10">s</tspan><tspan baseline-shift="sub"><tspan font-family="cmmi" font-size="7">A</tspan> </tspan> </g> </g>
 </text> 
</g>
 </g>
 <path d=" M 186.18991 56.8486 L 175.49652 56.8486 L 203.94925 56.8486  " fill="none"/>
 <g transform="translate(161.83852,54.5232)">
 <g fill="#000">
 <text style="stroke:none" transform="scale(1,-1) translate(5.06252,0)" text-anchor="middle"  font-size="10"> 
<g fill="#000">
 <g stroke="none"> <tspan font-family="cmmi" font-size="10">t</tspan><tspan baseline-shift="sub"><tspan font-family="cmmi" font-size="7">A</tspan> </tspan> </g> </g>
 </text> 
</g>
 </g>
 </g>
 </g>
                                                                             </g> 
</svg> 
