<?xml version="1.0" encoding="iso-8859-1" standalone="no"?> 
<?xml-stylesheet href="elementary_elliptic.css" type="text/css"?> 
<svg xmlns="http://www.w3.org/2000/svg" xmlns:xlink="http://www.w3.org/1999/xlink" width="356.34235pt" height="243.35431pt" viewBox="-170.91646 -114.01097 356.34235 243.35431 "> 
<g transform="translate(0, 129.34334 ) scale(1,-1) translate(0,114.01097 )"> 
                                            <g>{?nl} <g stroke="rgb(0.0%,0.0%,0.0%)">{?nl} <g fill="rgb(0.0%,0.0%,0.0%)">{?nl} <g stroke-width="0.4pt">{?nl} <g>{?nl} <path d=" M  0.0 0.0 M  113.81097 0.0 C  113.81097 39.28554 62.85687 71.13185 0.0 71.13185 C  -62.85687 71.13185 -113.81097 39.28554 -113.81097 0.0 C  -113.81097 -39.28554 -62.85687 -71.13185 0.0 -71.13185 C  62.85687 -71.13185 113.81097 -39.28554 113.81097 0.0 Z M  0.0 0.0  " style="fill:none"/>{?nl} <path d=" M  0.0 -113.81097 L  0.0 0.0 L  0.0 71.13185 L  0.0 113.35098  " style="fill:none"/>{?nl} <g>{?nl} <g transform="matrix(0.0,1.0,-1.0,0.0,0.0,113.35098)">{?nl} <g>{?nl} <g stroke-width="0.31999pt">{?nl} <g stroke-dasharray="none" stroke-dashoffset="0.0pt">{?nl} <g stroke-linecap="round">{?nl} <g stroke-linejoin="round">{?nl} <path d=" M  -1.19998 1.59998 C  -1.09998 0.99998 0.0 0.09999 0.29999 0.0 C  0.0 -0.09999 -1.09998 -0.99998 -1.19998 -1.59998  " style="fill:none"/>{?nl} </g>{?nl} </g>{?nl} </g>{?nl} </g>{?nl} </g>{?nl}  </g>{?nl} </g>{?nl} <g>{?nl} <g>{?nl} <g transform="matrix(1.0,0.0,0.0,1.0,-9.11195,31.39926)">{?nl} <g fill="rgb(0.0%,0.0%,0.0%)">{?nl} <text style="stroke:none" transform="scale(1,-1) translate(2.49788,0)" text-anchor="middle"  font-size="12"> 
<tspan font-family="cmmi" font-size="12">b</tspan></text> 
</g>{?nl} </g>{?nl} </g>{?nl} </g>{?nl} <g>{?nl} <g>{?nl} <g transform="matrix(1.0,0.0,0.0,1.0,-3.07982,120.26048)">{?nl} <g fill="rgb(0.0%,0.0%,0.0%)">{?nl} <text style="stroke:none" transform="scale(1,-1) translate(3.07982,0)" text-anchor="middle"  font-size="12"> 
<tspan font-family="cmmi" font-size="12">y</tspan></text> 
</g>{?nl} </g>{?nl} </g>{?nl} </g>{?nl} <path d=" M  -170.71646 0.0 L  0.0 0.0 L  113.81097 0.0 L  170.25647 0.0  " style="fill:none"/>{?nl} <g>{?nl} <g transform="matrix(1.0,0.0,0.0,1.0,170.25647,0.0)">{?nl} <g>{?nl} <g stroke-width="0.31999pt">{?nl} <g stroke-dasharray="none" stroke-dashoffset="0.0pt">{?nl} <g stroke-linecap="round">{?nl} <g stroke-linejoin="round">{?nl} <path d=" M  -1.19998 1.59998 C  -1.09998 0.99998 0.0 0.09999 0.29999 0.0 C  0.0 -0.09999 -1.09998 -0.99998 -1.19998 -1.59998  " style="fill:none"/>{?nl} </g>{?nl} </g>{?nl} </g>{?nl} </g>{?nl} </g>{?nl}  </g>{?nl} </g>{?nl} <g>{?nl} <g>{?nl} <g transform="matrix(1.0,0.0,0.0,1.0,53.8215,-9.28285)">{?nl} <g fill="rgb(0.0%,0.0%,0.0%)">{?nl} <text style="stroke:none" transform="scale(1,-1) translate(3.08398,0)" text-anchor="middle"  font-size="12"> 
<tspan font-family="cmmi" font-size="12">a</tspan></text> 
</g>{?nl} </g>{?nl} </g>{?nl} </g>{?nl} <g>{?nl} <g>{?nl} <g transform="matrix(1.0,0.0,0.0,1.0,174.83266,-2.58333)">{?nl} <g fill="rgb(0.0%,0.0%,0.0%)">{?nl} <text style="stroke:none" transform="scale(1,-1) translate(3.33852,0)" text-anchor="middle"  font-size="12"> 
<tspan font-family="cmmi" font-size="12">x</tspan></text> 
</g>{?nl} </g>{?nl} </g>{?nl} </g>{?nl} </g>{?nl} </g>{?nl} </g>{?nl} </g>{?nl} </g>{?nl} 
                                                                             </g> 
</svg> 
