<?xml version="1.0" encoding="iso-8859-1" standalone="no"?> 
<?xml-stylesheet href="elementary_elliptic.css" type="text/css"?> 
<svg xmlns="http://www.w3.org/2000/svg" xmlns:xlink="http://www.w3.org/1999/xlink" width="356.34235pt" height="300.2598pt" viewBox="-170.91646 -114.01097 356.34235 300.2598 "> 
<g transform="translate(0, 186.24883 ) scale(1,-1) translate(0,114.01097 )"> 
                                            <g>{?nl} <g stroke="rgb(0.0%,0.0%,0.0%)">{?nl} <g fill="rgb(0.0%,0.0%,0.0%)">{?nl} <g stroke-width="0.4pt">{?nl} <g>{?nl} <g>{?nl} </g>{?nl} <g>{?nl} </g>{?nl} <g>{?nl} </g>{?nl} <path d=" M  0.0 0.0 M  2.0 0.0 C  2.0 1.10458 1.10458 2.0 0.0 2.0 C  -1.10458 2.0 -2.0 1.10458 -2.0 0.0 C  -2.0 -1.10458 -1.10458 -2.0 0.0 -2.0 C  1.10458 -2.0 2.0 -1.10458 2.0 0.0 Z M  0.0 0.0  " style="stroke:none"/>{?nl} <path d=" M  56.90549 61.60303 M  58.90549 61.60303 C  58.90549 62.70761 58.01007 63.60303 56.90549 63.60303 C  55.8009 63.60303 54.90549 62.70761 54.90549 61.60303 C  54.90549 60.49844 55.8009 59.60303 56.90549 59.60303 C  58.01007 59.60303 58.90549 60.49844 58.90549 61.60303 Z M  56.90549 61.60303  " style="stroke:none"/>{?nl} <path d=" M  113.81097 0.0 M  115.81097 0.0 C  115.81097 1.10458 114.91556 2.0 113.81097 2.0 C  112.70639 2.0 111.81097 1.10458 111.81097 0.0 C  111.81097 -1.10458 112.70639 -2.0 113.81097 -2.0 C  114.91556 -2.0 115.81097 -1.10458 115.81097 0.0 Z M  113.81097 0.0  " style="stroke:none"/>{?nl} <path d=" M  0.0 0.0 M  113.81097 0.0 C  113.81097 39.28554 62.85687 71.13185 0.0 71.13185 C  -62.85687 71.13185 -113.81097 39.28554 -113.81097 0.0 C  -113.81097 -39.28554 -62.85687 -71.13185 0.0 -71.13185 C  62.85687 -71.13185 113.81097 -39.28554 113.81097 0.0 Z M  0.0 0.0  " style="fill:none"/>{?nl} <path d=" M  0.0 0.0 L  56.90549 61.60303  " style="fill:none"/>{?nl} <g>{?nl} <g>{?nl} <g transform="matrix(1.0,0.0,0.0,1.0,-13.25499,-12.31618)">{?nl} <g fill="rgb(0.0%,0.0%,0.0%)">{?nl} <text style="stroke:none" transform="scale(1,-1) translate(4.5694,0)" text-anchor="middle"  font-size="12"> 
O</text> 
</g>{?nl} </g>{?nl} </g>{?nl} </g>{?nl} <g>{?nl} <g>{?nl} <g transform="matrix(1.0,0.0,0.0,1.0,61.02168,65.71922)">{?nl} <g fill="rgb(0.0%,0.0%,0.0%)">{?nl} <text style="stroke:none" transform="scale(1,-1) translate(3.99718,0)" text-anchor="middle"  font-size="12"> 
P</text> 
</g>{?nl} </g>{?nl} </g>{?nl} </g>{?nl} <g>{?nl} <g>{?nl} <g transform="matrix(1.0,0.0,0.0,1.0,100.91022,38.67305)">{?nl} <g fill="rgb(0.0%,0.0%,0.0%)">{?nl} <text style="stroke:none" transform="scale(1,-1) translate(3.3437,0)" text-anchor="middle"  font-size="12"> 
<tspan font-family="cmmi" font-size="12">u</tspan></text> 
</g>{?nl} </g>{?nl} </g>{?nl} </g>{?nl} <path d=" M  0.0 -113.81097 L  0.0 0.0 L  0.0 71.13185 L  0.0 170.25647  " style="fill:none"/>{?nl} <g>{?nl} <g transform="matrix(0.0,1.0,-1.0,0.0,0.0,170.25647)">{?nl} <g>{?nl} <g stroke-width="0.31999pt">{?nl} <g stroke-dasharray="none" stroke-dashoffset="0.0pt">{?nl} <g stroke-linecap="round">{?nl} <g stroke-linejoin="round">{?nl} <path d=" M  -1.19998 1.59998 C  -1.09998 0.99998 0.0 0.09999 0.29999 0.0 C  0.0 -0.09999 -1.09998 -0.99998 -1.19998 -1.59998  " style="fill:none"/>{?nl} </g>{?nl} </g>{?nl} </g>{?nl} </g>{?nl} </g>{?nl}  </g>{?nl} </g>{?nl} <g>{?nl} <g>{?nl} <g transform="matrix(1.0,0.0,0.0,1.0,-9.11195,31.39926)">{?nl} <g fill="rgb(0.0%,0.0%,0.0%)">{?nl} <text style="stroke:none" transform="scale(1,-1) translate(2.49788,0)" text-anchor="middle"  font-size="12"> 
<tspan font-family="cmmi" font-size="12">b</tspan></text> 
</g>{?nl} </g>{?nl} </g>{?nl} </g>{?nl} <g>{?nl} <g>{?nl} <g transform="matrix(1.0,0.0,0.0,1.0,-3.07982,177.16597)">{?nl} <g fill="rgb(0.0%,0.0%,0.0%)">{?nl} <text style="stroke:none" transform="scale(1,-1) translate(3.07982,0)" text-anchor="middle"  font-size="12"> 
<tspan font-family="cmmi" font-size="12">y</tspan></text> 
</g>{?nl} </g>{?nl} </g>{?nl} </g>{?nl} <path d=" M  -170.71646 0.0 L  0.0 0.0 L  113.81097 0.0 L  170.25647 0.0  " style="fill:none"/>{?nl} <g>{?nl} <g transform="matrix(1.0,0.0,0.0,1.0,170.25647,0.0)">{?nl} <g>{?nl} <g stroke-width="0.31999pt">{?nl} <g stroke-dasharray="none" stroke-dashoffset="0.0pt">{?nl} <g stroke-linecap="round">{?nl} <g stroke-linejoin="round">{?nl} <path d=" M  -1.19998 1.59998 C  -1.09998 0.99998 0.0 0.09999 0.29999 0.0 C  0.0 -0.09999 -1.09998 -0.99998 -1.19998 -1.59998  " style="fill:none"/>{?nl} </g>{?nl} </g>{?nl} </g>{?nl} </g>{?nl} </g>{?nl}  </g>{?nl} </g>{?nl} <g>{?nl} <g>{?nl} <g transform="matrix(1.0,0.0,0.0,1.0,53.8215,-9.28285)">{?nl} <g fill="rgb(0.0%,0.0%,0.0%)">{?nl} <text style="stroke:none" transform="scale(1,-1) translate(3.08398,0)" text-anchor="middle"  font-size="12"> 
<tspan font-family="cmmi" font-size="12">a</tspan></text> 
</g>{?nl} </g>{?nl} </g>{?nl} </g>{?nl} <g>{?nl} <g>{?nl} <g transform="matrix(1.0,0.0,0.0,1.0,117.92717,4.1162)">{?nl} <g fill="rgb(0.0%,0.0%,0.0%)">{?nl} <text style="stroke:none" transform="scale(1,-1) translate(4.40411,0)" text-anchor="middle"  font-size="12"> 
A</text> 
</g>{?nl} </g>{?nl} </g>{?nl} </g>{?nl} <g>{?nl} <g>{?nl} <g transform="matrix(1.0,0.0,0.0,1.0,174.83266,-2.58333)">{?nl} <g fill="rgb(0.0%,0.0%,0.0%)">{?nl} <text style="stroke:none" transform="scale(1,-1) translate(3.33852,0)" text-anchor="middle"  font-size="12"> 
<tspan font-family="cmmi" font-size="12">x</tspan></text> 
</g>{?nl} </g>{?nl} </g>{?nl} </g>{?nl} </g>{?nl} </g>{?nl} </g>{?nl} </g>{?nl} </g>{?nl} 
                                                                             </g> 
</svg> 
