<?xml version="1.0" encoding="iso-8859-1" standalone="no"?> 
<?xml-stylesheet href="main.css" type="text/css"?> 
<svg xmlns="http://www.w3.org/2000/svg" xmlns:xlink="http://www.w3.org/1999/xlink" width="409.77742pt" height="212.18901pt" viewBox="-245.27025 -117.9146 409.77742 212.18901 "> 
<g transform="translate(0, 94.27441 ) scale(1,-1) translate(0,117.9146 )"> 
                                                               <g stroke="#000" fill="#000">
 <g stroke-width="0.4">
 <path d=" M 0.0 0.0 M 2.0 0.0 C 2.0 1.10458 1.10458 2.0 0.0 2.0 C -1.10458 2.0 -2.0 1.10458 -2.0 0.0 C -2.0 -1.10458 -1.10458 -2.0 0.0 -2.0 C 1.10458 -2.0 2.0 -1.10458 2.0 0.0 Z M 0.0 0.0  " stroke="none"/>
 <path d=" M 0.0 0.0  " fill="none"/>
 <g transform="translate(-12.60222,-12.31618)">
 <g fill="#000">
 <text style="stroke:none" transform="scale(1,-1) translate(4.24301,0)" text-anchor="middle"  font-size="12"> 
<g fill="#000">
 <g stroke="none"> C</g> </g>
 </text> 
</g>
 </g>
 <path d=" M 113.81097 0.0 M 115.81097 0.0 C 115.81097 1.10458 114.91556 2.0 113.81097 2.0 C 112.70639 2.0 111.81097 1.10458 111.81097 0.0 C 111.81097 -1.10458 112.70639 -2.0 113.81097 -2.0 C 114.91556 -2.0 115.81097 -1.10458 115.81097 0.0 Z M 113.81097 0.0  " stroke="none"/>
 <path d=" M 113.81097 0.0  " fill="none"/>
 <g transform="translate(106.81688,-12.31618)">
 <g fill="#000">
 <text style="stroke:none" transform="scale(1,-1) translate(6.9941,0)" text-anchor="middle"  font-size="12"> 
<g fill="#000">
 <g stroke="none"> <tspan font-family="cmmi" font-size="12">F</tspan><tspan baseline-shift="sub"><tspan font-family="cmr" font-size="8">1</tspan></tspan></g> </g>
 </text> 
</g>
 </g>
 <path d=" M -113.81097 0.0 M -111.81097 0.0 C -111.81097 1.10458 -112.70639 2.0 -113.81097 2.0 C -114.91556 2.0 -115.81097 1.10458 -115.81097 0.0 C -115.81097 -1.10458 -114.91556 -2.0 -113.81097 -2.0 C -112.70639 -2.0 -111.81097 -1.10458 -111.81097 0.0 Z M -113.81097 0.0  " stroke="none"/>
 <path d=" M -113.81097 0.0  " fill="none"/>
 <g transform="translate(-120.80507,-12.31618)">
 <g fill="#000">
 <text style="stroke:none" transform="scale(1,-1) translate(6.9941,0)" text-anchor="middle"  font-size="12"> 
<g fill="#000">
 <g stroke="none"> <tspan font-family="cmmi" font-size="12">F</tspan> <tspan baseline-shift="sub"><tspan font-family="cmr" font-size="8">2</tspan></tspan></g> </g>
 </text> 
</g>
 </g>
 <path d=" M 142.26372 0.0 M 144.26372 0.0 C 144.26372 1.10458 143.3683 2.0 142.26372 2.0 C 141.15913 2.0 140.26372 1.10458 140.26372 0.0 C 140.26372 -1.10458 141.15913 -2.0 142.26372 -2.0 C 143.3683 -2.0 144.26372 -1.10458 144.26372 0.0 Z M 142.26372 0.0  " stroke="none"/>
 <path d=" M 142.26372 0.0  " fill="none"/>
 <g transform="translate(146.37991,-3.2)">
 <g fill="#000">
 <text style="stroke:none" transform="scale(1,-1) translate(7.10553,0)" text-anchor="middle"  font-size="12"> 
<g fill="#000">
 <g stroke="none"> <tspan font-family="cmmi" font-size="12">V</tspan> <tspan baseline-shift="sub"><tspan font-family="cmr" font-size="8">1</tspan></tspan></g> </g>
 </text> 
</g>
 </g>
 <path d=" M -142.26372 0.0 M -140.26372 0.0 C -140.26372 1.10458 -141.15913 2.0 -142.26372 2.0 C -143.3683 2.0 -144.26372 1.10458 -144.26372 0.0 C -144.26372 -1.10458 -143.3683 -2.0 -142.26372 -2.0 C -141.15913 -2.0 -140.26372 -1.10458 -140.26372 0.0 Z M -142.26372 0.0  " stroke="none"/>
 <path d=" M -142.26372 0.0  " fill="none"/>
 <g transform="translate(-138.14752,-3.2)">
 <g fill="#000">
 <text style="stroke:none" transform="scale(1,-1) translate(7.10553,0)" text-anchor="middle"  font-size="12"> 
<g fill="#000">
 <g stroke="none"> <tspan font-family="cmmi" font-size="12">V</tspan> <tspan baseline-shift="sub"><tspan font-family="cmr" font-size="8">2</tspan></tspan></g> </g>
 </text> 
</g>
 </g>
 <path d=" M 0.0 85.35823 M 2.0 85.35823 C 2.0 86.46281 1.10458 87.35823 0.0 87.35823 C -1.10458 87.35823 -2.0 86.46281 -2.0 85.35823 C -2.0 84.25365 -1.10458 83.35823 0.0 83.35823 C 1.10458 83.35823 2.0 84.25365 2.0 85.35823 Z M 0.0 85.35823  " stroke="none"/>
 <path d=" M 0.0 85.35823  " fill="none"/>
 <g transform="translate(4.1162,82.15823)">
 <g fill="#000">
 <text style="stroke:none" transform="scale(1,-1) translate(7.10553,0)" text-anchor="middle"  font-size="12"> 
<g fill="#000">
 <g stroke="none"> <tspan font-family="cmmi" font-size="12">V</tspan> <tspan baseline-shift="sub"><tspan font-family="cmr" font-size="8">3</tspan></tspan></g> </g>
 </text> 
</g>
 </g>
 <path d=" M 0.0 -85.35823 M 2.0 -85.35823 C 2.0 -84.25365 1.10458 -83.35823 0.0 -83.35823 C -1.10458 -83.35823 -2.0 -84.25365 -2.0 -85.35823 C -2.0 -86.46281 -1.10458 -87.35823 0.0 -87.35823 C 1.10458 -87.35823 2.0 -86.46281 2.0 -85.35823 Z M 0.0 -85.35823  " stroke="none"/>
 <path d=" M 0.0 -85.35823  " fill="none"/>
 <g transform="translate(4.1162,-88.55823)">
 <g fill="#000">
 <text style="stroke:none" transform="scale(1,-1) translate(7.10553,0)" text-anchor="middle"  font-size="12"> 
<g fill="#000">
 <g stroke="none"> <tspan font-family="cmmi" font-size="12">V</tspan> <tspan baseline-shift="sub"><tspan font-family="cmr" font-size="8">4</tspan></tspan></g> </g>
 </text> 
</g>
 </g>
 <path d=" M 0.0 0.0 M 142.26372 0.0 C 142.26372 47.14265 78.57109 85.35823 0.0 85.35823 C -78.57109 85.35823 -142.26372 47.14265 -142.26372 0.0 C -142.26372 -47.14265 -78.57109 -85.35823 0.0 -85.35823 C 78.57109 -85.35823 142.26372 -47.14265 142.26372 0.0 Z M 0.0 0.0  " fill="none"/>
 <path d=" M 142.26372 0.0 L 113.81097 0.0 L 0.0 0.0 L 0.0 85.35823  " fill="none"/>
 <g stroke-dasharray="0.4,2.0" stroke-dashoffset="0.0">
 <path d=" M -142.26372 0.0 L 0.0 0.0 L 0.0 -85.35823  " fill="none"/>
 </g>
 <g stroke-dasharray="0.4,2.0" stroke-dashoffset="0.0">
 <path d=" M 0.0 -85.35823 L 0.0 -99.5846  " fill="none"/>
 </g>
 <g stroke-dasharray="0.4,2.0" stroke-dashoffset="0.0">
 <path d=" M 142.26372 0.0 L 142.26372 -99.5846  " fill="none"/>
 </g>
 <path d=" M 0.45999 -99.5846 L 141.80373 -99.5846  " fill="none"/>
 <g transform="matrix(-1.0,0.0,0.0,-1.0,0.45999,-99.5846)">
 <g stroke-width="0.31999">
 <g stroke-dasharray="none" stroke-dashoffset="0.0">
 <g stroke-linecap="round">
 <g stroke-linejoin="round">
 <path d=" M -1.19998 1.59998 C -1.09998 0.99998 0.0 0.09999 0.29999 0.0 C 0.0 -0.09999 -1.09998 -0.99998 -1.19998 -1.59998  " fill="none"/>
 </g>
 </g>
 </g>
 </g>
  </g>
 <g transform="translate(141.80373,-99.5846)">
 <g stroke-width="0.31999">
 <g stroke-dasharray="none" stroke-dashoffset="0.0">
 <g stroke-linecap="round">
 <g stroke-linejoin="round">
 <path d=" M -1.19998 1.59998 C -1.09998 0.99998 0.0 0.09999 0.29999 0.0 C 0.0 -0.09999 -1.09998 -0.99998 -1.19998 -1.59998  " fill="none"/>
 </g>
 </g>
 </g>
 </g>
  </g>
 <g transform="translate(30.59477,-111.66508)">
 <g fill="#000">
 <text style="stroke:none" transform="scale(1,-1) translate(40.53708,0)" text-anchor="middle"  font-size="12"> 
<g fill="#000">
 <g stroke="none"> semi-major axis</g> </g>
 </text> 
</g>
 </g>
 <g stroke-dasharray="0.4,2.0" stroke-dashoffset="0.0">
 <path d=" M 0.0 85.35823 L -156.49008 85.35823  " fill="none"/>
 </g>
 <g stroke-dasharray="0.4,2.0" stroke-dashoffset="0.0">
 <path d=" M -142.26372 0.0 L -156.49008 0.0  " fill="none"/>
 </g>
 <path d=" M -156.49008 84.89824 L -156.49008 0.45999  " fill="none"/>
 <g transform="matrix(0.0,1.0,-1.0,0.0,-156.49008,84.89824)">
 <g stroke-width="0.31999">
 <g stroke-dasharray="none" stroke-dashoffset="0.0">
 <g stroke-linecap="round">
 <g stroke-linejoin="round">
 <path d=" M -1.19998 1.59998 C -1.09998 0.99998 0.0 0.09999 0.29999 0.0 C 0.0 -0.09999 -1.09998 -0.99998 -1.19998 -1.59998  " fill="none"/>
 </g>
 </g>
 </g>
 </g>
  </g>
 <g transform="matrix(0.0,-1.0,1.0,0.0,-156.49008,0.45999)">
 <g stroke-width="0.31999">
 <g stroke-dasharray="none" stroke-dashoffset="0.0">
 <g stroke-linecap="round">
 <g stroke-linejoin="round">
 <path d=" M -1.19998 1.59998 C -1.09998 0.99998 0.0 0.09999 0.29999 0.0 C 0.0 -0.09999 -1.09998 -0.99998 -1.19998 -1.59998  " fill="none"/>
 </g>
 </g>
 </g>
 </g>
  </g>
 <g transform="translate(-241.35405,38.69698)">
 <g fill="#000">
 <text style="stroke:none" transform="scale(1,-1) translate(40.37389,0)" text-anchor="middle"  font-size="12"> 
<g fill="#000">
 <g stroke="none"> semi-minor axis </g> </g>
 </text> 
</g>
 </g>
 </g>
 </g>
 
                                                                                                         </g> 
</svg> 
